<svg
  xmlns="http://www.w3.org/2000/svg"
  xmlns:xlink="http://www.w3.org/1999/xlink" style="margin:auto;background:#7aceff;display:block;z-index:1;position:relative" width="1920" height="1080" preserveAspectRatio="xMidYMid" viewBox="0 0 1920 1080">
  <g transform="">
    <g transform="translate(1659.11 211.957)">
      <animateTransform attributeName="transform" type="translate" keyTimes="0;1" values="-100 211.95671893058162;1920 211.95671893058162" dur="1000s" repeatCount="indefinite" begin="-859.4742209620873s"></animateTransform>
      <path d="M84.717,33.597c0.791-2.503,1.186-5.138,1.186-7.773C85.903,11.594,74.308,0,60.079,0 c-9.881,0-18.445,5.534-22.793,13.702c-1.581-0.527-3.426-0.791-5.138-0.791c-9.486,0-17.128,7.642-17.128,17.128 c0,1.186,0.132,2.372,0.395,3.426C6.719,34.783,0,42.424,0,51.515C0,61.66,8.169,69.829,18.314,69.829h63.373 C91.831,69.829,100,61.66,100,51.515C99.868,42.556,93.281,35.046,84.717,33.597z" fill="#bddeff" transform="scale(0.55)"></path>
    </g>
    <g transform="translate(1299.37 1074.81)">
      <animateTransform attributeName="transform" type="translate" keyTimes="0;1" values="-100 1074.8133111554691;1920 1074.8133111554691" dur="1000s" repeatCount="indefinite" begin="-681.3895971082567s"></animateTransform>
      <path d="M84.717,33.597c0.791-2.503,1.186-5.138,1.186-7.773C85.903,11.594,74.308,0,60.079,0 c-9.881,0-18.445,5.534-22.793,13.702c-1.581-0.527-3.426-0.791-5.138-0.791c-9.486,0-17.128,7.642-17.128,17.128 c0,1.186,0.132,2.372,0.395,3.426C6.719,34.783,0,42.424,0,51.515C0,61.66,8.169,69.829,18.314,69.829h63.373 C91.831,69.829,100,61.66,100,51.515C99.868,42.556,93.281,35.046,84.717,33.597z" fill="#bddeff" transform="scale(0.55)"></path>
    </g>
    <g transform="translate(-30.6116 3.37394)">
      <animateTransform attributeName="transform" type="translate" keyTimes="0;1" values="-100 3.3739404212895963;1920 3.3739404212895963" dur="1000s" repeatCount="indefinite" begin="-22.98055428074841s"></animateTransform>
      <path d="M84.717,33.597c0.791-2.503,1.186-5.138,1.186-7.773C85.903,11.594,74.308,0,60.079,0 c-9.881,0-18.445,5.534-22.793,13.702c-1.581-0.527-3.426-0.791-5.138-0.791c-9.486,0-17.128,7.642-17.128,17.128 c0,1.186,0.132,2.372,0.395,3.426C6.719,34.783,0,42.424,0,51.515C0,61.66,8.169,69.829,18.314,69.829h63.373 C91.831,69.829,100,61.66,100,51.515C99.868,42.556,93.281,35.046,84.717,33.597z" fill="#bddeff" transform="scale(0.55)"></path>
    </g>
    <g transform="translate(218.294 715.384)">
      <animateTransform attributeName="transform" type="translate" keyTimes="0;1" values="-100 715.3842717964637;1920 715.3842717964637" dur="1000s" repeatCount="indefinite" begin="-146.2013222106986s"></animateTransform>
      <path d="M84.717,33.597c0.791-2.503,1.186-5.138,1.186-7.773C85.903,11.594,74.308,0,60.079,0 c-9.881,0-18.445,5.534-22.793,13.702c-1.581-0.527-3.426-0.791-5.138-0.791c-9.486,0-17.128,7.642-17.128,17.128 c0,1.186,0.132,2.372,0.395,3.426C6.719,34.783,0,42.424,0,51.515C0,61.66,8.169,69.829,18.314,69.829h63.373 C91.831,69.829,100,61.66,100,51.515C99.868,42.556,93.281,35.046,84.717,33.597z" fill="#bddeff" transform="scale(0.55)"></path>
    </g>
    <g transform="translate(54.0638 483.642)">
      <animateTransform attributeName="transform" type="translate" keyTimes="0;1" values="-100 483.64195040490534;1920 483.64195040490534" dur="1000s" repeatCount="indefinite" begin="-64.89908670165323s"></animateTransform>
      <path d="M84.717,33.597c0.791-2.503,1.186-5.138,1.186-7.773C85.903,11.594,74.308,0,60.079,0 c-9.881,0-18.445,5.534-22.793,13.702c-1.581-0.527-3.426-0.791-5.138-0.791c-9.486,0-17.128,7.642-17.128,17.128 c0,1.186,0.132,2.372,0.395,3.426C6.719,34.783,0,42.424,0,51.515C0,61.66,8.169,69.829,18.314,69.829h63.373 C91.831,69.829,100,61.66,100,51.515C99.868,42.556,93.281,35.046,84.717,33.597z" fill="#bddeff" transform="scale(0.55)"></path>
    </g>
    <g transform="translate(1662.78 648.717)">
      <animateTransform attributeName="transform" type="translate" keyTimes="0;1" values="-100 648.7166201567379;1920 648.7166201567379" dur="1000s" repeatCount="indefinite" begin="-861.2913344504769s"></animateTransform>
      <path d="M84.717,33.597c0.791-2.503,1.186-5.138,1.186-7.773C85.903,11.594,74.308,0,60.079,0 c-9.881,0-18.445,5.534-22.793,13.702c-1.581-0.527-3.426-0.791-5.138-0.791c-9.486,0-17.128,7.642-17.128,17.128 c0,1.186,0.132,2.372,0.395,3.426C6.719,34.783,0,42.424,0,51.515C0,61.66,8.169,69.829,18.314,69.829h63.373 C91.831,69.829,100,61.66,100,51.515C99.868,42.556,93.281,35.046,84.717,33.597z" fill="#bddeff" transform="scale(0.55)"></path>
    </g>
    <g transform="translate(1468.09 682.514)">
      <animateTransform attributeName="transform" type="translate" keyTimes="0;1" values="-100 682.5137780759474;1920 682.5137780759474" dur="1000s" repeatCount="indefinite" begin="-764.91413437036s"></animateTransform>
      <path d="M84.717,33.597c0.791-2.503,1.186-5.138,1.186-7.773C85.903,11.594,74.308,0,60.079,0 c-9.881,0-18.445,5.534-22.793,13.702c-1.581-0.527-3.426-0.791-5.138-0.791c-9.486,0-17.128,7.642-17.128,17.128 c0,1.186,0.132,2.372,0.395,3.426C6.719,34.783,0,42.424,0,51.515C0,61.66,8.169,69.829,18.314,69.829h63.373 C91.831,69.829,100,61.66,100,51.515C99.868,42.556,93.281,35.046,84.717,33.597z" fill="#bddeff" transform="scale(0.55)"></path>
    </g>
    <g transform="translate(992.181 1030.52)">
      <animateTransform attributeName="transform" type="translate" keyTimes="0;1" values="-100 1030.516047647273;1920 1030.516047647273" dur="1000s" repeatCount="indefinite" begin="-529.3134536690014s"></animateTransform>
      <path d="M84.717,33.597c0.791-2.503,1.186-5.138,1.186-7.773C85.903,11.594,74.308,0,60.079,0 c-9.881,0-18.445,5.534-22.793,13.702c-1.581-0.527-3.426-0.791-5.138-0.791c-9.486,0-17.128,7.642-17.128,17.128 c0,1.186,0.132,2.372,0.395,3.426C6.719,34.783,0,42.424,0,51.515C0,61.66,8.169,69.829,18.314,69.829h63.373 C91.831,69.829,100,61.66,100,51.515C99.868,42.556,93.281,35.046,84.717,33.597z" fill="#bddeff" transform="scale(0.55)"></path>
    </g>
    <g transform="translate(409.454 776.436)">
      <animateTransform attributeName="transform" type="translate" keyTimes="0;1" values="-100 776.4360222375722;1920 776.4360222375722" dur="1000s" repeatCount="indefinite" begin="-240.83472413286012s"></animateTransform>
      <path d="M84.717,33.597c0.791-2.503,1.186-5.138,1.186-7.773C85.903,11.594,74.308,0,60.079,0 c-9.881,0-18.445,5.534-22.793,13.702c-1.581-0.527-3.426-0.791-5.138-0.791c-9.486,0-17.128,7.642-17.128,17.128 c0,1.186,0.132,2.372,0.395,3.426C6.719,34.783,0,42.424,0,51.515C0,61.66,8.169,69.829,18.314,69.829h63.373 C91.831,69.829,100,61.66,100,51.515C99.868,42.556,93.281,35.046,84.717,33.597z" fill="#bddeff" transform="scale(0.55)"></path>
    </g>
    <g transform="translate(460.184 997.94)">
      <animateTransform attributeName="transform" type="translate" keyTimes="0;1" values="-100 997.9395062918239;1920 997.9395062918239" dur="1000s" repeatCount="indefinite" begin="-265.9485897356486s"></animateTransform>
      <path d="M84.717,33.597c0.791-2.503,1.186-5.138,1.186-7.773C85.903,11.594,74.308,0,60.079,0 c-9.881,0-18.445,5.534-22.793,13.702c-1.581-0.527-3.426-0.791-5.138-0.791c-9.486,0-17.128,7.642-17.128,17.128 c0,1.186,0.132,2.372,0.395,3.426C6.719,34.783,0,42.424,0,51.515C0,61.66,8.169,69.829,18.314,69.829h63.373 C91.831,69.829,100,61.66,100,51.515C99.868,42.556,93.281,35.046,84.717,33.597z" fill="#bddeff" transform="scale(0.55)"></path>
    </g>
    <g transform="translate(1033.45 142.036)">
      <animateTransform attributeName="transform" type="translate" keyTimes="0;1" values="-100 142.036022877201;1920 142.036022877201" dur="1000s" repeatCount="indefinite" begin="-549.7458897762752s"></animateTransform>
      <path d="M84.717,33.597c0.791-2.503,1.186-5.138,1.186-7.773C85.903,11.594,74.308,0,60.079,0 c-9.881,0-18.445,5.534-22.793,13.702c-1.581-0.527-3.426-0.791-5.138-0.791c-9.486,0-17.128,7.642-17.128,17.128 c0,1.186,0.132,2.372,0.395,3.426C6.719,34.783,0,42.424,0,51.515C0,61.66,8.169,69.829,18.314,69.829h63.373 C91.831,69.829,100,61.66,100,51.515C99.868,42.556,93.281,35.046,84.717,33.597z" fill="#bddeff" transform="scale(0.55)"></path>
    </g>
    <g transform="translate(145.117 1013.1)">
      <animateTransform attributeName="transform" type="translate" keyTimes="0;1" values="-100 1013.1024499253563;1920 1013.1024499253563" dur="500s" repeatCount="indefinite" begin="-49.3024433169309s"></animateTransform>
      <path d="M84.717,33.597c0.791-2.503,1.186-5.138,1.186-7.773C85.903,11.594,74.308,0,60.079,0 c-9.881,0-18.445,5.534-22.793,13.702c-1.581-0.527-3.426-0.791-5.138-0.791c-9.486,0-17.128,7.642-17.128,17.128 c0,1.186,0.132,2.372,0.395,3.426C6.719,34.783,0,42.424,0,51.515C0,61.66,8.169,69.829,18.314,69.829h63.373 C91.831,69.829,100,61.66,100,51.515C99.868,42.556,93.281,35.046,84.717,33.597z" fill="#ffffff" transform="scale(0.7)"></path>
    </g>
    <g transform="translate(720.23 863.657)">
      <animateTransform attributeName="transform" type="translate" keyTimes="0;1" values="-100 863.6573511609472;1920 863.6573511609472" dur="500s" repeatCount="indefinite" begin="-691.6571806753959s"></animateTransform>
      <path d="M84.717,33.597c0.791-2.503,1.186-5.138,1.186-7.773C85.903,11.594,74.308,0,60.079,0 c-9.881,0-18.445,5.534-22.793,13.702c-1.581-0.527-3.426-0.791-5.138-0.791c-9.486,0-17.128,7.642-17.128,17.128 c0,1.186,0.132,2.372,0.395,3.426C6.719,34.783,0,42.424,0,51.515C0,61.66,8.169,69.829,18.314,69.829h63.373 C91.831,69.829,100,61.66,100,51.515C99.868,42.556,93.281,35.046,84.717,33.597z" fill="#ffffff" transform="scale(0.7)"></path>
    </g>
    <g transform="translate(1518.5 521.489)">
      <animateTransform attributeName="transform" type="translate" keyTimes="0;1" values="-100 521.4888674013079;1920 521.4888674013079" dur="500s" repeatCount="indefinite" begin="-389.24874508976615s"></animateTransform>
      <path d="M84.717,33.597c0.791-2.503,1.186-5.138,1.186-7.773C85.903,11.594,74.308,0,60.079,0 c-9.881,0-18.445,5.534-22.793,13.702c-1.581-0.527-3.426-0.791-5.138-0.791c-9.486,0-17.128,7.642-17.128,17.128 c0,1.186,0.132,2.372,0.395,3.426C6.719,34.783,0,42.424,0,51.515C0,61.66,8.169,69.829,18.314,69.829h63.373 C91.831,69.829,100,61.66,100,51.515C99.868,42.556,93.281,35.046,84.717,33.597z" fill="#ffffff" transform="scale(0.7)"></path>
    </g>
    <g transform="translate(-6.35974 1052.21)">
      <animateTransform attributeName="transform" type="translate" keyTimes="0;1" values="-100 1052.2051266305011;1920 1052.2051266305011" dur="500s" repeatCount="indefinite" begin="-11.80815897867138s"></animateTransform>
      <path d="M84.717,33.597c0.791-2.503,1.186-5.138,1.186-7.773C85.903,11.594,74.308,0,60.079,0 c-9.881,0-18.445,5.534-22.793,13.702c-1.581-0.527-3.426-0.791-5.138-0.791c-9.486,0-17.128,7.642-17.128,17.128 c0,1.186,0.132,2.372,0.395,3.426C6.719,34.783,0,42.424,0,51.515C0,61.66,8.169,69.829,18.314,69.829h63.373 C91.831,69.829,100,61.66,100,51.515C99.868,42.556,93.281,35.046,84.717,33.597z" fill="#ffffff" transform="scale(0.7)"></path>
    </g>
    <g transform="translate(741.25 663.04)">
      <animateTransform attributeName="transform" type="translate" keyTimes="0;1" values="-100 663.0403201533326;1920 663.0403201533326" dur="500s" repeatCount="indefinite" begin="-696.8601069315043s"></animateTransform>
      <path d="M84.717,33.597c0.791-2.503,1.186-5.138,1.186-7.773C85.903,11.594,74.308,0,60.079,0 c-9.881,0-18.445,5.534-22.793,13.702c-1.581-0.527-3.426-0.791-5.138-0.791c-9.486,0-17.128,7.642-17.128,17.128 c0,1.186,0.132,2.372,0.395,3.426C6.719,34.783,0,42.424,0,51.515C0,61.66,8.169,69.829,18.314,69.829h63.373 C91.831,69.829,100,61.66,100,51.515C99.868,42.556,93.281,35.046,84.717,33.597z" fill="#ffffff" transform="scale(0.7)"></path>
    </g>
    <g transform="translate(1218.5 1022.07)">
      <animateTransform attributeName="transform" type="translate" keyTimes="0;1" values="-100 1022.0707421972086;1920 1022.0707421972086" dur="500s" repeatCount="indefinite" begin="-314.9910056816809s"></animateTransform>
      <path d="M84.717,33.597c0.791-2.503,1.186-5.138,1.186-7.773C85.903,11.594,74.308,0,60.079,0 c-9.881,0-18.445,5.534-22.793,13.702c-1.581-0.527-3.426-0.791-5.138-0.791c-9.486,0-17.128,7.642-17.128,17.128 c0,1.186,0.132,2.372,0.395,3.426C6.719,34.783,0,42.424,0,51.515C0,61.66,8.169,69.829,18.314,69.829h63.373 C91.831,69.829,100,61.66,100,51.515C99.868,42.556,93.281,35.046,84.717,33.597z" fill="#ffffff" transform="scale(0.7)"></path>
    </g>
    <g transform="translate(1452.66 979.307)">
      <animateTransform attributeName="transform" type="translate" keyTimes="0;1" values="-100 979.3072698619284;1920 979.3072698619284" dur="500s" repeatCount="indefinite" begin="-372.95193961921s"></animateTransform>
      <path d="M84.717,33.597c0.791-2.503,1.186-5.138,1.186-7.773C85.903,11.594,74.308,0,60.079,0 c-9.881,0-18.445,5.534-22.793,13.702c-1.581-0.527-3.426-0.791-5.138-0.791c-9.486,0-17.128,7.642-17.128,17.128 c0,1.186,0.132,2.372,0.395,3.426C6.719,34.783,0,42.424,0,51.515C0,61.66,8.169,69.829,18.314,69.829h63.373 C91.831,69.829,100,61.66,100,51.515C99.868,42.556,93.281,35.046,84.717,33.597z" fill="#ffffff" transform="scale(0.7)"></path>
    </g>
    <g transform="translate(267.766 436.094)">
      <animateTransform attributeName="transform" type="translate" keyTimes="0;1" values="-100 436.0944565447978;1920 436.0944565447978" dur="500s" repeatCount="indefinite" begin="-579.6609974511841s"></animateTransform>
      <path d="M84.717,33.597c0.791-2.503,1.186-5.138,1.186-7.773C85.903,11.594,74.308,0,60.079,0 c-9.881,0-18.445,5.534-22.793,13.702c-1.581-0.527-3.426-0.791-5.138-0.791c-9.486,0-17.128,7.642-17.128,17.128 c0,1.186,0.132,2.372,0.395,3.426C6.719,34.783,0,42.424,0,51.515C0,61.66,8.169,69.829,18.314,69.829h63.373 C91.831,69.829,100,61.66,100,51.515C99.868,42.556,93.281,35.046,84.717,33.597z" fill="#ffffff" transform="scale(0.7)"></path>
    </g>
    <g transform="translate(601.397 119.561)">
      <animateTransform attributeName="transform" type="translate" keyTimes="0;1" values="-100 119.56132874409344;1920 119.56132874409344" dur="500s" repeatCount="indefinite" begin="-162.2430139868689s"></animateTransform>
      <path d="M84.717,33.597c0.791-2.503,1.186-5.138,1.186-7.773C85.903,11.594,74.308,0,60.079,0 c-9.881,0-18.445,5.534-22.793,13.702c-1.581-0.527-3.426-0.791-5.138-0.791c-9.486,0-17.128,7.642-17.128,17.128 c0,1.186,0.132,2.372,0.395,3.426C6.719,34.783,0,42.424,0,51.515C0,61.66,8.169,69.829,18.314,69.829h63.373 C91.831,69.829,100,61.66,100,51.515C99.868,42.556,93.281,35.046,84.717,33.597z" fill="#ffffff" transform="scale(0.7)"></path>
    </g>
    <g transform="translate(113.313 996.65)">
      <animateTransform attributeName="transform" type="translate" keyTimes="0;1" values="-100 996.65032880155;1920 996.65032880155" dur="500s" repeatCount="indefinite" begin="-541.4300532117209s"></animateTransform>
      <path d="M84.717,33.597c0.791-2.503,1.186-5.138,1.186-7.773C85.903,11.594,74.308,0,60.079,0 c-9.881,0-18.445,5.534-22.793,13.702c-1.581-0.527-3.426-0.791-5.138-0.791c-9.486,0-17.128,7.642-17.128,17.128 c0,1.186,0.132,2.372,0.395,3.426C6.719,34.783,0,42.424,0,51.515C0,61.66,8.169,69.829,18.314,69.829h63.373 C91.831,69.829,100,61.66,100,51.515C99.868,42.556,93.281,35.046,84.717,33.597z" fill="#ffffff" transform="scale(0.7)"></path>
    </g>
    <g transform="translate(1571.02 745.364)">
      <animateTransform attributeName="transform" type="translate" keyTimes="0;1" values="-100 745.3636429921357;1920 745.3636429921357" dur="500s" repeatCount="indefinite" begin="-902.2498137939725s"></animateTransform>
      <path d="M84.717,33.597c0.791-2.503,1.186-5.138,1.186-7.773C85.903,11.594,74.308,0,60.079,0 c-9.881,0-18.445,5.534-22.793,13.702c-1.581-0.527-3.426-0.791-5.138-0.791c-9.486,0-17.128,7.642-17.128,17.128 c0,1.186,0.132,2.372,0.395,3.426C6.719,34.783,0,42.424,0,51.515C0,61.66,8.169,69.829,18.314,69.829h63.373 C91.831,69.829,100,61.66,100,51.515C99.868,42.556,93.281,35.046,84.717,33.597z" fill="#ffffff" transform="scale(0.7)"></path>
    </g>
    <g transform="translate(270.375 158.442)">
      <animateTransform attributeName="transform" type="translate" keyTimes="0;1" values="-100 158.44244792336065;1920 158.44244792336065" dur="333.3333333333333s" repeatCount="indefinite" begin="-716.4145766690547s"></animateTransform>
      <path d="M84.717,33.597c0.791-2.503,1.186-5.138,1.186-7.773C85.903,11.594,74.308,0,60.079,0 c-9.881,0-18.445,5.534-22.793,13.702c-1.581-0.527-3.426-0.791-5.138-0.791c-9.486,0-17.128,7.642-17.128,17.128 c0,1.186,0.132,2.372,0.395,3.426C6.719,34.783,0,42.424,0,51.515C0,61.66,8.169,69.829,18.314,69.829h63.373 C91.831,69.829,100,61.66,100,51.515C99.868,42.556,93.281,35.046,84.717,33.597z" fill="#f1f2f3" transform="scale(0.85)"></path>
    </g>
    <g transform="translate(30.1721 763.907)">
      <animateTransform attributeName="transform" type="translate" keyTimes="0;1" values="-100 763.9073036363541;1920 763.9073036363541" dur="333.3333333333333s" repeatCount="indefinite" begin="-676.7770900164916s"></animateTransform>
      <path d="M84.717,33.597c0.791-2.503,1.186-5.138,1.186-7.773C85.903,11.594,74.308,0,60.079,0 c-9.881,0-18.445,5.534-22.793,13.702c-1.581-0.527-3.426-0.791-5.138-0.791c-9.486,0-17.128,7.642-17.128,17.128 c0,1.186,0.132,2.372,0.395,3.426C6.719,34.783,0,42.424,0,51.515C0,61.66,8.169,69.829,18.314,69.829h63.373 C91.831,69.829,100,61.66,100,51.515C99.868,42.556,93.281,35.046,84.717,33.597z" fill="#f1f2f3" transform="scale(0.85)"></path>
    </g>
    <g transform="translate(1162.18 757.463)">
      <animateTransform attributeName="transform" type="translate" keyTimes="0;1" values="-100 757.4632969425022;1920 757.4632969425022" dur="333.3333333333333s" repeatCount="indefinite" begin="-196.91007323017385s"></animateTransform>
      <path d="M84.717,33.597c0.791-2.503,1.186-5.138,1.186-7.773C85.903,11.594,74.308,0,60.079,0 c-9.881,0-18.445,5.534-22.793,13.702c-1.581-0.527-3.426-0.791-5.138-0.791c-9.486,0-17.128,7.642-17.128,17.128 c0,1.186,0.132,2.372,0.395,3.426C6.719,34.783,0,42.424,0,51.515C0,61.66,8.169,69.829,18.314,69.829h63.373 C91.831,69.829,100,61.66,100,51.515C99.868,42.556,93.281,35.046,84.717,33.597z" fill="#f1f2f3" transform="scale(0.85)"></path>
    </g>
    <g transform="translate(-95.4309 875.567)">
      <animateTransform attributeName="transform" type="translate" keyTimes="0;1" values="-100 875.567297709605;1920 875.567297709605" dur="333.3333333333333s" repeatCount="indefinite" begin="-656.0505219366024s"></animateTransform>
      <path d="M84.717,33.597c0.791-2.503,1.186-5.138,1.186-7.773C85.903,11.594,74.308,0,60.079,0 c-9.881,0-18.445,5.534-22.793,13.702c-1.581-0.527-3.426-0.791-5.138-0.791c-9.486,0-17.128,7.642-17.128,17.128 c0,1.186,0.132,2.372,0.395,3.426C6.719,34.783,0,42.424,0,51.515C0,61.66,8.169,69.829,18.314,69.829h63.373 C91.831,69.829,100,61.66,100,51.515C99.868,42.556,93.281,35.046,84.717,33.597z" fill="#f1f2f3" transform="scale(0.85)"></path>
    </g>
    <g transform="translate(1897.89 861.494)">
      <animateTransform attributeName="transform" type="translate" keyTimes="0;1" values="-100 861.4935707457682;1920 861.4935707457682" dur="333.3333333333333s" repeatCount="indefinite" begin="-318.31426049648127s"></animateTransform>
      <path d="M84.717,33.597c0.791-2.503,1.186-5.138,1.186-7.773C85.903,11.594,74.308,0,60.079,0 c-9.881,0-18.445,5.534-22.793,13.702c-1.581-0.527-3.426-0.791-5.138-0.791c-9.486,0-17.128,7.642-17.128,17.128 c0,1.186,0.132,2.372,0.395,3.426C6.719,34.783,0,42.424,0,51.515C0,61.66,8.169,69.829,18.314,69.829h63.373 C91.831,69.829,100,61.66,100,51.515C99.868,42.556,93.281,35.046,84.717,33.597z" fill="#f1f2f3" transform="scale(0.85)"></path>
    </g>
    <g transform="translate(516.987 465.634)">
      <animateTransform attributeName="transform" type="translate" keyTimes="0;1" values="-100 465.6336964012961;1920 465.6336964012961" dur="333.3333333333333s" repeatCount="indefinite" begin="-90.4428558605086s"></animateTransform>
      <path d="M84.717,33.597c0.791-2.503,1.186-5.138,1.186-7.773C85.903,11.594,74.308,0,60.079,0 c-9.881,0-18.445,5.534-22.793,13.702c-1.581-0.527-3.426-0.791-5.138-0.791c-9.486,0-17.128,7.642-17.128,17.128 c0,1.186,0.132,2.372,0.395,3.426C6.719,34.783,0,42.424,0,51.515C0,61.66,8.169,69.829,18.314,69.829h63.373 C91.831,69.829,100,61.66,100,51.515C99.868,42.556,93.281,35.046,84.717,33.597z" fill="#f1f2f3" transform="scale(0.85)"></path>
    </g>
    <g transform="translate(1737.11 98.6986)">
      <animateTransform attributeName="transform" type="translate" keyTimes="0;1" values="-100 98.69861215867877;1920 98.69861215867877" dur="333.3333333333333s" repeatCount="indefinite" begin="-291.7840140335137s"></animateTransform>
      <path d="M84.717,33.597c0.791-2.503,1.186-5.138,1.186-7.773C85.903,11.594,74.308,0,60.079,0 c-9.881,0-18.445,5.534-22.793,13.702c-1.581-0.527-3.426-0.791-5.138-0.791c-9.486,0-17.128,7.642-17.128,17.128 c0,1.186,0.132,2.372,0.395,3.426C6.719,34.783,0,42.424,0,51.515C0,61.66,8.169,69.829,18.314,69.829h63.373 C91.831,69.829,100,61.66,100,51.515C99.868,42.556,93.281,35.046,84.717,33.597z" fill="#f1f2f3" transform="scale(0.85)"></path>
    </g>
    <g transform="translate(38.9231 690.325)">
      <animateTransform attributeName="transform" type="translate" keyTimes="0;1" values="-100 690.3247675933771;1920 690.3247675933771" dur="333.3333333333333s" repeatCount="indefinite" begin="-678.2211489669958s"></animateTransform>
      <path d="M84.717,33.597c0.791-2.503,1.186-5.138,1.186-7.773C85.903,11.594,74.308,0,60.079,0 c-9.881,0-18.445,5.534-22.793,13.702c-1.581-0.527-3.426-0.791-5.138-0.791c-9.486,0-17.128,7.642-17.128,17.128 c0,1.186,0.132,2.372,0.395,3.426C6.719,34.783,0,42.424,0,51.515C0,61.66,8.169,69.829,18.314,69.829h63.373 C91.831,69.829,100,61.66,100,51.515C99.868,42.556,93.281,35.046,84.717,33.597z" fill="#f1f2f3" transform="scale(0.85)"></path>
    </g>
    <g transform="translate(1271.33 612.477)">
      <animateTransform attributeName="transform" type="translate" keyTimes="0;1" values="-100 612.4771482329492;1920 612.4771482329492" dur="333.3333333333333s" repeatCount="indefinite" begin="-881.5883772722042s"></animateTransform>
      <path d="M84.717,33.597c0.791-2.503,1.186-5.138,1.186-7.773C85.903,11.594,74.308,0,60.079,0 c-9.881,0-18.445,5.534-22.793,13.702c-1.581-0.527-3.426-0.791-5.138-0.791c-9.486,0-17.128,7.642-17.128,17.128 c0,1.186,0.132,2.372,0.395,3.426C6.719,34.783,0,42.424,0,51.515C0,61.66,8.169,69.829,18.314,69.829h63.373 C91.831,69.829,100,61.66,100,51.515C99.868,42.556,93.281,35.046,84.717,33.597z" fill="#f1f2f3" transform="scale(0.85)"></path>
    </g>
    <g transform="translate(-75.275 504.068)">
      <animateTransform attributeName="transform" type="translate" keyTimes="0;1" values="-100 504.067597753933;1920 504.067597753933" dur="333.3333333333333s" repeatCount="indefinite" begin="-992.7099010297143s"></animateTransform>
      <path d="M84.717,33.597c0.791-2.503,1.186-5.138,1.186-7.773C85.903,11.594,74.308,0,60.079,0 c-9.881,0-18.445,5.534-22.793,13.702c-1.581-0.527-3.426-0.791-5.138-0.791c-9.486,0-17.128,7.642-17.128,17.128 c0,1.186,0.132,2.372,0.395,3.426C6.719,34.783,0,42.424,0,51.515C0,61.66,8.169,69.829,18.314,69.829h63.373 C91.831,69.829,100,61.66,100,51.515C99.868,42.556,93.281,35.046,84.717,33.597z" fill="#f1f2f3" transform="scale(0.85)"></path>
    </g>
    <g transform="translate(1502.76 949.901)">
      <animateTransform attributeName="transform" type="translate" keyTimes="0;1" values="-100 949.9005160680342;1920 949.9005160680342" dur="333.3333333333333s" repeatCount="indefinite" begin="-919.7779836045444s"></animateTransform>
      <path d="M84.717,33.597c0.791-2.503,1.186-5.138,1.186-7.773C85.903,11.594,74.308,0,60.079,0 c-9.881,0-18.445,5.534-22.793,13.702c-1.581-0.527-3.426-0.791-5.138-0.791c-9.486,0-17.128,7.642-17.128,17.128 c0,1.186,0.132,2.372,0.395,3.426C6.719,34.783,0,42.424,0,51.515C0,61.66,8.169,69.829,18.314,69.829h63.373 C91.831,69.829,100,61.66,100,51.515C99.868,42.556,93.281,35.046,84.717,33.597z" fill="#f1f2f3" transform="scale(0.85)"></path>
    </g>
    <g transform="translate(24.5197 255.336)">
      <animateTransform attributeName="transform" type="translate" keyTimes="0;1" values="-100 255.335971234567;1920 255.335971234567" dur="250s" repeatCount="indefinite" begin="-504.04072833904223s"></animateTransform>
      <path d="M84.717,33.597c0.791-2.503,1.186-5.138,1.186-7.773C85.903,11.594,74.308,0,60.079,0 c-9.881,0-18.445,5.534-22.793,13.702c-1.581-0.527-3.426-0.791-5.138-0.791c-9.486,0-17.128,7.642-17.128,17.128 c0,1.186,0.132,2.372,0.395,3.426C6.719,34.783,0,42.424,0,51.515C0,61.66,8.169,69.829,18.314,69.829h63.373 C91.831,69.829,100,61.66,100,51.515C99.868,42.556,93.281,35.046,84.717,33.597z" fill="#bddeff" transform="scale(1)"></path>
    </g>
    <g transform="translate(420.58 52.1596)">
      <animateTransform attributeName="transform" type="translate" keyTimes="0;1" values="-100 52.15962396947846;1920 52.15962396947846" dur="250s" repeatCount="indefinite" begin="-803.0580362198727s"></animateTransform>
      <path d="M84.717,33.597c0.791-2.503,1.186-5.138,1.186-7.773C85.903,11.594,74.308,0,60.079,0 c-9.881,0-18.445,5.534-22.793,13.702c-1.581-0.527-3.426-0.791-5.138-0.791c-9.486,0-17.128,7.642-17.128,17.128 c0,1.186,0.132,2.372,0.395,3.426C6.719,34.783,0,42.424,0,51.515C0,61.66,8.169,69.829,18.314,69.829h63.373 C91.831,69.829,100,61.66,100,51.515C99.868,42.556,93.281,35.046,84.717,33.597z" fill="#bddeff" transform="scale(1)"></path>
    </g>
    <g transform="translate(1304.02 713.643)">
      <animateTransform attributeName="transform" type="translate" keyTimes="0;1" values="-100 713.6434441055661;1920 713.6434441055661" dur="250s" repeatCount="indefinite" begin="-162.39430688860912s"></animateTransform>
      <path d="M84.717,33.597c0.791-2.503,1.186-5.138,1.186-7.773C85.903,11.594,74.308,0,60.079,0 c-9.881,0-18.445,5.534-22.793,13.702c-1.581-0.527-3.426-0.791-5.138-0.791c-9.486,0-17.128,7.642-17.128,17.128 c0,1.186,0.132,2.372,0.395,3.426C6.719,34.783,0,42.424,0,51.515C0,61.66,8.169,69.829,18.314,69.829h63.373 C91.831,69.829,100,61.66,100,51.515C99.868,42.556,93.281,35.046,84.717,33.597z" fill="#bddeff" transform="scale(1)"></path>
    </g>
    <g transform="translate(636.125 1063.07)">
      <animateTransform attributeName="transform" type="translate" keyTimes="0;1" values="-100 1063.0657029083186;1920 1063.0657029083186" dur="250s" repeatCount="indefinite" begin="-579.7344732016974s"></animateTransform>
      <path d="M84.717,33.597c0.791-2.503,1.186-5.138,1.186-7.773C85.903,11.594,74.308,0,60.079,0 c-9.881,0-18.445,5.534-22.793,13.702c-1.581-0.527-3.426-0.791-5.138-0.791c-9.486,0-17.128,7.642-17.128,17.128 c0,1.186,0.132,2.372,0.395,3.426C6.719,34.783,0,42.424,0,51.515C0,61.66,8.169,69.829,18.314,69.829h63.373 C91.831,69.829,100,61.66,100,51.515C99.868,42.556,93.281,35.046,84.717,33.597z" fill="#bddeff" transform="scale(1)"></path>
    </g>
    <g transform="translate(1096.97 628.383)">
      <animateTransform attributeName="transform" type="translate" keyTimes="0;1" values="-100 628.3825019423066;1920 628.3825019423066" dur="250s" repeatCount="indefinite" begin="-136.77030297101123s"></animateTransform>
      <path d="M84.717,33.597c0.791-2.503,1.186-5.138,1.186-7.773C85.903,11.594,74.308,0,60.079,0 c-9.881,0-18.445,5.534-22.793,13.702c-1.581-0.527-3.426-0.791-5.138-0.791c-9.486,0-17.128,7.642-17.128,17.128 c0,1.186,0.132,2.372,0.395,3.426C6.719,34.783,0,42.424,0,51.515C0,61.66,8.169,69.829,18.314,69.829h63.373 C91.831,69.829,100,61.66,100,51.515C99.868,42.556,93.281,35.046,84.717,33.597z" fill="#bddeff" transform="scale(1)"></path>
    </g>
    <g transform="translate(1389.99 850.464)">
      <animateTransform attributeName="transform" type="translate" keyTimes="0;1" values="-100 850.4641278338648;1920 850.4641278338648" dur="250s" repeatCount="indefinite" begin="-673.0343650199728s"></animateTransform>
      <path d="M84.717,33.597c0.791-2.503,1.186-5.138,1.186-7.773C85.903,11.594,74.308,0,60.079,0 c-9.881,0-18.445,5.534-22.793,13.702c-1.581-0.527-3.426-0.791-5.138-0.791c-9.486,0-17.128,7.642-17.128,17.128 c0,1.186,0.132,2.372,0.395,3.426C6.719,34.783,0,42.424,0,51.515C0,61.66,8.169,69.829,18.314,69.829h63.373 C91.831,69.829,100,61.66,100,51.515C99.868,42.556,93.281,35.046,84.717,33.597z" fill="#bddeff" transform="scale(1)"></path>
    </g>
    <g transform="translate(930.101 530.865)">
      <animateTransform attributeName="transform" type="translate" keyTimes="0;1" values="-100 530.8650847100483;1920 530.8650847100483" dur="250s" repeatCount="indefinite" begin="-116.11758984703502s"></animateTransform>
      <path d="M84.717,33.597c0.791-2.503,1.186-5.138,1.186-7.773C85.903,11.594,74.308,0,60.079,0 c-9.881,0-18.445,5.534-22.793,13.702c-1.581-0.527-3.426-0.791-5.138-0.791c-9.486,0-17.128,7.642-17.128,17.128 c0,1.186,0.132,2.372,0.395,3.426C6.719,34.783,0,42.424,0,51.515C0,61.66,8.169,69.829,18.314,69.829h63.373 C91.831,69.829,100,61.66,100,51.515C99.868,42.556,93.281,35.046,84.717,33.597z" fill="#bddeff" transform="scale(1)"></path>
    </g>
    <g transform="translate(1198.6 968.665)">
      <animateTransform attributeName="transform" type="translate" keyTimes="0;1" values="-100 968.6646689128487;1920 968.6646689128487" dur="250s" repeatCount="indefinite" begin="-899.3473869823612s"></animateTransform>
      <path d="M84.717,33.597c0.791-2.503,1.186-5.138,1.186-7.773C85.903,11.594,74.308,0,60.079,0 c-9.881,0-18.445,5.534-22.793,13.702c-1.581-0.527-3.426-0.791-5.138-0.791c-9.486,0-17.128,7.642-17.128,17.128 c0,1.186,0.132,2.372,0.395,3.426C6.719,34.783,0,42.424,0,51.515C0,61.66,8.169,69.829,18.314,69.829h63.373 C91.831,69.829,100,61.66,100,51.515C99.868,42.556,93.281,35.046,84.717,33.597z" fill="#bddeff" transform="scale(1)"></path>
    </g>
    <g transform="translate(841.296 160.396)">
      <animateTransform attributeName="transform" type="translate" keyTimes="0;1" values="-100 160.39619617989604;1920 160.39619617989604" dur="250s" repeatCount="indefinite" begin="-855.1268837963199s"></animateTransform>
      <path d="M84.717,33.597c0.791-2.503,1.186-5.138,1.186-7.773C85.903,11.594,74.308,0,60.079,0 c-9.881,0-18.445,5.534-22.793,13.702c-1.581-0.527-3.426-0.791-5.138-0.791c-9.486,0-17.128,7.642-17.128,17.128 c0,1.186,0.132,2.372,0.395,3.426C6.719,34.783,0,42.424,0,51.515C0,61.66,8.169,69.829,18.314,69.829h63.373 C91.831,69.829,100,61.66,100,51.515C99.868,42.556,93.281,35.046,84.717,33.597z" fill="#bddeff" transform="scale(1)"></path>
    </g>
    <g transform="translate(1208.1 455.055)">
      <animateTransform attributeName="transform" type="translate" keyTimes="0;1" values="-100 455.0546115999924;1920 455.0546115999924" dur="250s" repeatCount="indefinite" begin="-150.52356812919433s"></animateTransform>
      <path d="M84.717,33.597c0.791-2.503,1.186-5.138,1.186-7.773C85.903,11.594,74.308,0,60.079,0 c-9.881,0-18.445,5.534-22.793,13.702c-1.581-0.527-3.426-0.791-5.138-0.791c-9.486,0-17.128,7.642-17.128,17.128 c0,1.186,0.132,2.372,0.395,3.426C6.719,34.783,0,42.424,0,51.515C0,61.66,8.169,69.829,18.314,69.829h63.373 C91.831,69.829,100,61.66,100,51.515C99.868,42.556,93.281,35.046,84.717,33.597z" fill="#bddeff" transform="scale(1)"></path>
    </g>
    <g transform="translate(217.295 493.866)">
      <animateTransform attributeName="transform" type="translate" keyTimes="0;1" values="-100 493.8656194954373;1920 493.8656194954373" dur="250s" repeatCount="indefinite" begin="-27.89906875028514s"></animateTransform>
      <path d="M84.717,33.597c0.791-2.503,1.186-5.138,1.186-7.773C85.903,11.594,74.308,0,60.079,0 c-9.881,0-18.445,5.534-22.793,13.702c-1.581-0.527-3.426-0.791-5.138-0.791c-9.486,0-17.128,7.642-17.128,17.128 c0,1.186,0.132,2.372,0.395,3.426C6.719,34.783,0,42.424,0,51.515C0,61.66,8.169,69.829,18.314,69.829h63.373 C91.831,69.829,100,61.66,100,51.515C99.868,42.556,93.281,35.046,84.717,33.597z" fill="#bddeff" transform="scale(1)"></path>
    </g>
    <g transform="translate(1727.58 4.27883)">
      <animateTransform attributeName="transform" type="translate" keyTimes="0;1" values="-100 4.278834044243558;1920 4.278834044243558" dur="250s" repeatCount="indefinite" begin="-214.8155692924405s"></animateTransform>
      <path d="M84.717,33.597c0.791-2.503,1.186-5.138,1.186-7.773C85.903,11.594,74.308,0,60.079,0 c-9.881,0-18.445,5.534-22.793,13.702c-1.581-0.527-3.426-0.791-5.138-0.791c-9.486,0-17.128,7.642-17.128,17.128 c0,1.186,0.132,2.372,0.395,3.426C6.719,34.783,0,42.424,0,51.515C0,61.66,8.169,69.829,18.314,69.829h63.373 C91.831,69.829,100,61.66,100,51.515C99.868,42.556,93.281,35.046,84.717,33.597z" fill="#bddeff" transform="scale(1)"></path>
    </g>
  </g>
</svg>